<svg width="47" height="46" viewBox="0 0 47 46" xmlns="http://www.w3.org/2000/svg">
    <defs>
        <linearGradient x1="21.835%" y1="12.877%" x2="95.721%" y2="89.487%" id="w9lgh72u6a">
            <stop stop-color="#5C88FF" offset="0%"/>
            <stop stop-color="#4FD8CC" offset="100%"/>
        </linearGradient>
        <linearGradient x1=".525%" y1="0%" x2="96.993%" y2="100%" id="vzzoinu8hb">
            <stop stop-color="#FACF00" offset="0%"/>
            <stop stop-color="#F3A100" offset="100%"/>
        </linearGradient>
    </defs>
    <g fill="none" fill-rule="evenodd">
        <path d="m38.998 27.492-.6-.219a18.98 18.98 0 0 0 .495-4.311C38.893 12.703 30.756 4.4 20.7 4.4c-10.054 0-18.193 8.302-18.193 18.562 0 1.46.167 2.905.495 4.311l-.606.222c-1.89.701-2.863 2.83-2.175 4.758l3.401 9.308c.683 1.906 2.757 2.92 4.662 2.213l4.559-1.693c.629-.233.954-.944.725-1.586L11.286 34.1h2.137c.46 0 .88-.265 1.085-.684l.96-1.958 1.63 6.655c.14.568.65.96 1.225.936a1.221 1.221 0 0 0 1.148-1.033l1.229-7.526 1.23 7.526a1.221 1.221 0 0 0 1.196 1.034c.554 0 1.04-.385 1.176-.937l1.63-6.655.96 1.958c.206.42.626.684 1.085.684h2.137l-2.282 6.396c-.229.642.096 1.353.725 1.586l4.56 1.693c1.885.7 3.97-.286 4.66-2.213l3.402-9.308c.687-1.924-.279-4.055-2.18-4.76zM20.7 6.875a15.46 15.46 0 0 1 8.88 2.801l-1.749 1.785A13.011 13.011 0 0 0 20.7 9.35c-2.555 0-5 .727-7.131 2.11l-1.75-1.784A15.46 15.46 0 0 1 20.7 6.875zM7.454 41.449a1.206 1.206 0 0 1-1.554-.74l-3.401-9.307c-.23-.65.108-1.352.72-1.58l3.504-1.278 4.15 11.635-3.419 1.27zm21.273-9.825-2.09-4.266a1.208 1.208 0 0 0-1.218-.676 1.221 1.221 0 0 0-1.044.93l-1.012 4.127-1.467-8.98a1.22 1.22 0 0 0-1.196-1.035 1.22 1.22 0 0 0-1.196 1.035l-1.467 8.98-1.012-4.127a1.22 1.22 0 0 0-1.044-.93 1.208 1.208 0 0 0-1.217.676l-2.09 4.266h-2.271L8.59 26.541a1.207 1.207 0 0 0-1.548-.742l-1.74.635a16.478 16.478 0 0 1-.37-3.472c0-4.62 1.92-8.79 4.986-11.726l2.65 2.705a1.195 1.195 0 0 0 1.587.114 10.67 10.67 0 0 1 6.545-2.23c2.38 0 4.643.771 6.545 2.23.484.371 1.16.32 1.586-.114l2.651-2.705a16.197 16.197 0 0 1 4.985 11.726c0 1.174-.124 2.337-.369 3.472l-1.74-.635a1.207 1.207 0 0 0-1.548.742l-1.813 5.083h-2.27zm10.174-.222s-3.4 9.304-3.4 9.307c-.23.642-.925.974-1.555.74l-3.42-1.27 4.151-11.635 3.498 1.276c.628.234.953.94.726 1.582z" fill="url(#w9lgh72u6a)" fill-rule="nonzero" transform="translate(0 2)"/>
        <path d="M36.663-1a3.091 3.091 0 0 1 3.084 3.095v3.19h3.169A3.091 3.091 0 0 1 46 8.38a3.091 3.091 0 0 1-3.084 3.096h-3.169v3.19a3.091 3.091 0 0 1-3.084 3.096 3.091 3.091 0 0 1-3.084-3.095v-3.191H30.41a3.091 3.091 0 0 1-3.084-3.095 3.091 3.091 0 0 1 3.083-3.095h3.168v-3.19A3.091 3.091 0 0 1 36.664-1z" stroke="#000" stroke-width="2" fill="url(#vzzoinu8hb)" transform="translate(0 2)"/>
    </g>
</svg>
