<svg width="48" height="48" viewBox="0 0 48 48" xmlns="http://www.w3.org/2000/svg">
    <g fill="#576078" fill-rule="evenodd">
        <path d="m38.998 30.514-.6-.219a18.98 18.98 0 0 0 .495-4.311c0-10.259-8.137-18.562-18.193-18.562-10.054 0-18.193 8.302-18.193 18.562 0 1.46.167 2.905.495 4.311l-.606.221c-1.89.702-2.863 2.83-2.175 4.758l3.401 9.309c.683 1.906 2.757 2.92 4.662 2.213l4.559-1.693c.629-.234.954-.944.725-1.586l-2.282-6.396h2.137c.46 0 .88-.265 1.085-.684l.96-1.958 1.63 6.654c.14.57.65.96 1.225.937a1.221 1.221 0 0 0 1.148-1.033L20.7 33.51l1.23 7.526a1.221 1.221 0 0 0 1.196 1.034c.554 0 1.04-.385 1.176-.938l1.63-6.654.96 1.958c.206.419.626.684 1.085.684h2.137l-2.282 6.396c-.229.642.096 1.352.725 1.586l4.56 1.693c1.885.7 3.97-.286 4.66-2.213l3.402-9.309c.687-1.924-.279-4.054-2.18-4.76zM20.7 9.897a15.46 15.46 0 0 1 8.88 2.801l-1.749 1.785a13.011 13.011 0 0 0-7.131-2.111c-2.555 0-5 .726-7.131 2.11l-1.75-1.784A15.46 15.46 0 0 1 20.7 9.897zM7.454 44.47a1.206 1.206 0 0 1-1.554-.74c-.002-.002-3.401-9.306-3.401-9.306-.23-.65.108-1.352.72-1.58l3.504-1.278 4.15 11.635-3.419 1.27zm21.273-9.824-2.09-4.266a1.208 1.208 0 0 0-1.218-.677 1.221 1.221 0 0 0-1.044.93l-1.012 4.128-1.467-8.98a1.22 1.22 0 0 0-1.196-1.035 1.22 1.22 0 0 0-1.196 1.034l-1.467 8.981-1.012-4.128a1.22 1.22 0 0 0-1.044-.93 1.208 1.208 0 0 0-1.217.677l-2.09 4.266h-2.271L8.59 29.563a1.207 1.207 0 0 0-1.548-.742l-1.74.635a16.478 16.478 0 0 1-.37-3.472c0-4.62 1.92-8.79 4.986-11.726l2.65 2.704a1.195 1.195 0 0 0 1.587.115 10.67 10.67 0 0 1 6.545-2.23c2.38 0 4.643.77 6.545 2.23.484.37 1.16.32 1.586-.115l2.651-2.704a16.197 16.197 0 0 1 4.985 11.726c0 1.174-.124 2.337-.369 3.472l-1.74-.635a1.207 1.207 0 0 0-1.548.742l-1.813 5.083h-2.27zm10.174-.222s-3.4 9.304-3.4 9.307c-.23.642-.925.973-1.555.74l-3.42-1.27 4.151-11.635 3.498 1.276c.628.233.953.94.726 1.582z" fill-rule="nonzero"/>
        <path d="M36.663 1.922a3.191 3.191 0 0 1 3.184 3.195v3.09h3.069a3.191 3.191 0 0 1 3.184 3.195 3.191 3.191 0 0 1-3.184 3.196h-3.069v3.09a3.191 3.191 0 0 1-3.184 3.196 3.19 3.19 0 0 1-3.184-3.195v-3.091H30.41a3.191 3.191 0 0 1-3.184-3.195 3.191 3.191 0 0 1 3.183-3.196h3.068v-3.09a3.191 3.191 0 0 1 3.185-3.195z" stroke="#000" stroke-width="2.2"/>
    </g>
</svg>
