<svg width="19" height="21" viewBox="0 0 19 21" xmlns="http://www.w3.org/2000/svg">
    <defs>
        <linearGradient x1="95.394%" y1="100%" x2="4.606%" y2="0%" id="wuacvwubta">
            <stop stop-color="#95FFF6" offset="0%"/>
            <stop stop-color="#5C88FF" offset="100%"/>
        </linearGradient>
    </defs>
    <path d="M9.5 0c-.202 0-.404.133-.404.399v1.199c0 .543.808.543.808 0v-1.2C9.904.134 9.702 0 9.5 0zm4.205 1.463-.838.828c-.403.397.165.962.568.564l.842-.83c.394-.388-.197-.933-.572-.562zm-8.99.664.854.848c.389.386.962-.18.572-.565l-.855-.845c-.377-.372-.96.177-.572.562zM9.126 4.26 6.024 8.701 3.313 4.259h5.814zm6.563 0-2.713 4.443L9.9 4.259h5.79zm-12.798.01 2.756 4.423H0L2.892 4.27zm6.621-.025 3.058 4.448H6.455l3.058-4.448zm6.533.025L19 8.692h-5.596l2.642-4.423zm-3.438 4.794L9.501 19.94 6.393 9.063h6.215zm-6.637 0L9.114 19.76.076 9.063H5.97zm12.956 0L9.94 19.76l3.09-10.698h5.896z" transform="translate(0 .268)" fill="url(#wuacvwubta)" fill-rule="evenodd"/>
</svg>
