<svg width="48" height="45" viewBox="0 0 48 45" xmlns="http://www.w3.org/2000/svg">
    <defs>
        <linearGradient x1="100%" y1="89.541%" x2="0%" y2="10.459%" id="sgqd72rpea">
            <stop stop-color="#4FD8CC" offset="0%"/>
            <stop stop-color="#5C88FF" offset="100%"/>
        </linearGradient>
        <linearGradient x1="100%" y1="98.817%" x2="0%" y2="1.183%" id="qatlfvwisb">
            <stop stop-color="#4FD8CC" offset="0%"/>
            <stop stop-color="#5C88FF" offset="100%"/>
        </linearGradient>
        <linearGradient x1="0%" y1="1.183%" x2="97.491%" y2="98.817%" id="q9nznzteyc">
            <stop stop-color="#FACF00" offset="0%"/>
            <stop stop-color="#F3A100" offset="100%"/>
        </linearGradient>
    </defs>
    <g fill="none" fill-rule="evenodd">
        <path d="M25.446 6.726c.464 0 .885.185 1.19.486a1.638 1.638 0 0 1 0 2.338 1.688 1.688 0 0 1-1.19.486H17.66c-.678 0-1.329.267-1.808.74l-1.757 1.737a5.96 5.96 0 0 1-4.189 1.714H6.361c-.706 0-1.345.283-1.808.74a2.515 2.515 0 0 0-.752 1.795v20.952c0 .701.287 1.336.752 1.795.463.457 1.102.74 1.808.74h29.687c.707 0 1.346-.283 1.809-.74.465-.46.752-1.094.752-1.795V23.048c0-.457.187-.87.49-1.169a1.688 1.688 0 0 1 1.19-.487c.465 0 .886.186 1.19.487.303.3.49.712.49 1.169v14.666a5.79 5.79 0 0 1-1.732 4.132 5.941 5.941 0 0 1-4.189 1.714H6.361a5.941 5.941 0 0 1-4.189-1.714A5.79 5.79 0 0 1 .44 37.714V16.762a5.79 5.79 0 0 1 1.732-4.132 5.941 5.941 0 0 1 4.19-1.714h3.544c.678 0 1.329-.267 1.809-.74L13.47 8.44a5.96 5.96 0 0 1 4.19-1.714z" stroke="#000" stroke-width=".88" fill="url(#sgqd72rpea)" transform="translate(0 .022)"/>
        <path d="M21.205 17.202c2.807 0 5.348 1.124 7.188 2.941a9.943 9.943 0 0 1 2.974 7.095c0 2.77-1.137 5.28-2.974 7.095a10.195 10.195 0 0 1-7.188 2.941 10.195 10.195 0 0 1-7.188-2.941 9.943 9.943 0 0 1-2.975-7.095c0-2.77 1.137-5.279 2.975-7.095a10.195 10.195 0 0 1 7.188-2.941zm0 3.31a6.819 6.819 0 0 0-4.808 1.968 6.667 6.667 0 0 0-1.994 4.758c0 1.858.762 3.54 1.994 4.758a6.819 6.819 0 0 0 4.808 1.968 6.819 6.819 0 0 0 4.807-1.968 6.667 6.667 0 0 0 1.994-4.758c0-1.858-.761-3.54-1.994-4.758a6.819 6.819 0 0 0-4.807-1.968z" stroke="#000" stroke-width=".88" fill="url(#qatlfvwisb)" transform="translate(0 .022)"/>
        <path d="M39.518 0c1.171 0 2.12.938 2.12 2.095v4.19h4.242c1.17 0 2.12.939 2.12 2.096s-.95 2.095-2.12 2.095h-4.242v4.19c0 1.158-.949 2.096-2.12 2.096-1.171 0-2.12-.938-2.12-2.095v-4.191h-4.241c-1.172 0-2.12-.938-2.12-2.095 0-1.157.948-2.095 2.12-2.095l4.24-.001v-4.19c0-1.157.95-2.095 2.121-2.095z" fill="url(#q9nznzteyc)" transform="translate(0 .022)"/>
    </g>
</svg>
