<svg width="22" height="23" viewBox="0 0 22 23" xmlns="http://www.w3.org/2000/svg">
    <g transform="translate(0 .18)" fill="none" fill-rule="evenodd">
        <circle fill="#4E5567" cx="11" cy="11" r="11"/>
        <path d="M11 4.278c.338 0 .611.273.611.61v4.89c0 .337.274.61.611.61h4.89a.611.611 0 1 1 0 1.223h-4.89a.611.611 0 0 0-.61.611v4.89a.611.611 0 1 1-1.223 0v-4.89a.611.611 0 0 0-.611-.61h-4.89a.611.611 0 0 1 0-1.223h4.89a.611.611 0 0 0 .61-.611v-4.89c0-.337.274-.61.612-.61z" fill="#C3C8D5" opacity=".489"/>
    </g>
</svg>
