<svg width="18" height="17" viewBox="0 0 18 17" xmlns="http://www.w3.org/2000/svg">
    <g fill="#576078" fill-rule="nonzero">
        <path d="M14.308 13.645a.528.528 0 0 0 .338-.122c.133-.11 3.152-2.708 3.336-8.316H3.181C2.997 10.297.217 12.69.188 12.714a.528.528 0 0 0 .339.931h13.781zM17.473 2.043h-2.637v-.527a.522.522 0 0 0-.528-.528.522.522 0 0 0-.527.528v.527h-2.672v-.527a.522.522 0 0 0-.527-.528.522.522 0 0 0-.528.528v.527H7.417v-.527A.522.522 0 0 0 6.89.988a.522.522 0 0 0-.527.528v.527H3.726a.522.522 0 0 0-.527.528v1.582H18V2.57a.522.522 0 0 0-.527-.528z"/>
        <path d="M15.324 14.332a1.587 1.587 0 0 1-1.016.368H3.198v1.582c0 .292.236.528.528.528h13.747a.527.527 0 0 0 .527-.528v-5.911c-1.017 2.494-2.436 3.76-2.676 3.96z"/>
    </g>
</svg>
