<svg width="48" height="45" viewBox="0 0 48 45" xmlns="http://www.w3.org/2000/svg">
    <g fill="#576078" fill-rule="evenodd">
        <path d="M25.446 6.557c.517 0 .985.207 1.323.542a1.827 1.827 0 0 1 0 2.607 1.877 1.877 0 0 1-1.323.542H17.66c-.628 0-1.23.247-1.675.686l-1.757 1.735a6.15 6.15 0 0 1-4.322 1.77H6.361c-.654 0-1.246.262-1.675.685a2.325 2.325 0 0 0-.695 1.66v20.952c0 .648.266 1.235.695 1.66.429.423 1.021.685 1.675.685h29.687c.654 0 1.247-.262 1.675-.686.43-.424.696-1.011.696-1.659V23.069c0-.509.209-.97.546-1.303a1.877 1.877 0 0 1 1.324-.542c.517 0 .985.207 1.324.542.338.333.547.794.547 1.303v14.667a5.98 5.98 0 0 1-1.79 4.267 6.13 6.13 0 0 1-4.322 1.769H6.361a6.13 6.13 0 0 1-4.322-1.77A5.98 5.98 0 0 1 .25 37.737V16.784a5.98 5.98 0 0 1 1.789-4.267 6.13 6.13 0 0 1 4.322-1.77h3.545c.628 0 1.23-.246 1.675-.685l1.757-1.736a6.15 6.15 0 0 1 4.322-1.769z" stroke="#000" stroke-width=".5"/>
        <path d="M21.205 17.034c2.859 0 5.447 1.144 7.321 2.996a10.132 10.132 0 0 1 3.031 7.23c0 2.823-1.158 5.38-3.03 7.23a10.384 10.384 0 0 1-7.322 2.996c-2.86 0-5.448-1.145-7.321-2.996a10.132 10.132 0 0 1-3.032-7.23c0-2.824 1.159-5.38 3.032-7.23a10.384 10.384 0 0 1 7.32-2.996zm0 3.69a6.63 6.63 0 0 0-4.674 1.913 6.478 6.478 0 0 0-1.938 4.623c0 1.805.74 3.44 1.938 4.622a6.63 6.63 0 0 0 4.674 1.914 6.63 6.63 0 0 0 4.674-1.914 6.478 6.478 0 0 0 1.937-4.622c0-1.805-.74-3.44-1.937-4.623a6.63 6.63 0 0 0-4.674-1.913z" stroke="#000" stroke-width=".5"/>
        <path d="M39.518.022c1.171 0 2.12.938 2.12 2.095v4.19h4.242c1.17 0 2.12.939 2.12 2.096s-.95 2.095-2.12 2.095h-4.242v4.19c0 1.158-.949 2.096-2.12 2.096-1.171 0-2.12-.938-2.12-2.096v-4.19h-4.241c-1.172 0-2.12-.938-2.12-2.095 0-1.157.948-2.096 2.12-2.096h4.24v-4.19c0-1.157.95-2.095 2.121-2.095z"/>
    </g>
</svg>
