<svg width="20" height="20" viewBox="0 0 20 20" xmlns="http://www.w3.org/2000/svg">
    <g fill="#4E5567" fill-rule="nonzero">
        <path d="M4.426 15.319A9.573 9.573 0 0 1 1.59 9.451 6.111 6.111 0 0 0 .266 13.27c.002.91.207 1.814.595 2.632l-.8 2.329c-.138.4-.037.835.262 1.134a1.092 1.092 0 0 0 1.134.262l2.328-.8a6.182 6.182 0 0 0 2.632.594 6.114 6.114 0 0 0 3.882-1.374 9.582 9.582 0 0 1-5.873-2.727z"/>
        <path d="m19.928 15.54-1.162-3.38a8.474 8.474 0 0 0 .858-3.699 8.397 8.397 0 0 0-2.426-5.929 8.39 8.39 0 0 0-5.885-2.53 8.384 8.384 0 0 0-6.11 2.472 8.383 8.383 0 0 0-2.474 6.11A8.39 8.39 0 0 0 5.26 14.47a8.397 8.397 0 0 0 5.916 2.426h.014a8.474 8.474 0 0 0 3.698-.858l3.38 1.162a1.297 1.297 0 0 0 1.348-.312c.356-.356.475-.872.312-1.348zm-7.936-4.16H7.63a.595.595 0 0 1 0-1.19h4.362a.595.595 0 0 1 0 1.19zm2.73-2.448H7.63a.595.595 0 0 1 0-1.19h7.092a.595.595 0 0 1 0 1.19zm0-2.449H7.63a.595.595 0 0 1 0-1.19h7.092a.595.595 0 0 1 0 1.19z"/>
    </g>
</svg>
