<svg width="22" height="22" viewBox="0 0 22 22" xmlns="http://www.w3.org/2000/svg">
    <g fill="none" fill-rule="evenodd">
        <path d="M9.655 0h2.324c2.723 0 4.183.377 5.505 1.083A7.37 7.37 0 0 1 20.55 4.15c.707 1.322 1.084 2.782 1.084 5.505v2.336c0 2.723-.377 4.183-1.084 5.505a7.37 7.37 0 0 1-3.066 3.067c-1.322.707-2.782 1.083-5.505 1.083H9.655c-2.723 0-4.183-.376-5.505-1.083a7.37 7.37 0 0 1-3.067-3.067C.377 16.174 0 14.714 0 11.991V9.655C0 6.932.377 5.472 1.083 4.15A7.37 7.37 0 0 1 4.15 1.083C5.472.377 6.932 0 9.655 0z" fill="#5C88FF"/>
        <path stroke="#FFF" stroke-width="1.893" stroke-linecap="round" d="m5.408 11.436 3.651 3.446 7.166-6.765"/>
    </g>
</svg>
