<svg width="23" height="22" viewBox="0 0 23 22" xmlns="http://www.w3.org/2000/svg">
    <path d="M20.465.2h-2.113v2.124a.708.708 0 0 1-.705.708.708.708 0 0 1-.704-.708V.2H5.673v2.124a.708.708 0 0 1-.705.708.708.708 0 0 1-.705-.708V.2H2.15C1.093.2.318 1.12.318 2.324v2.548H22.86V2.324C22.86 1.12 21.592.2 20.465.2zM.318 6.359v12.954c0 1.274.775 2.123 1.902 2.123h18.315c1.127 0 2.395-.92 2.395-2.123V6.359H.318zm6.27 11.892h-1.69a.557.557 0 0 1-.564-.566v-1.77c0-.283.211-.566.563-.566h1.761c.282 0 .564.212.564.566v1.77c-.07.354-.282.566-.634.566zm0-6.371h-1.69a.557.557 0 0 1-.564-.566v-1.77c0-.283.211-.566.563-.566h1.761c.282 0 .564.212.564.566v1.77c-.07.354-.282.566-.634.566zm5.635 6.37h-1.76a.557.557 0 0 1-.564-.565v-1.77c0-.283.21-.566.563-.566h1.761c.282 0 .564.212.564.566v1.77c0 .354-.212.566-.564.566zm0-6.37h-1.76a.557.557 0 0 1-.564-.566v-1.77c0-.283.21-.566.563-.566h1.761c.282 0 .564.212.564.566v1.77c0 .354-.212.566-.564.566zm5.636 6.37h-1.761a.557.557 0 0 1-.564-.565v-1.77c0-.283.211-.566.564-.566h1.76c.282 0 .564.212.564.566v1.77c0 .354-.211.566-.563.566zm0-6.37h-1.761a.557.557 0 0 1-.564-.566v-1.77c0-.283.211-.566.564-.566h1.76c.282 0 .564.212.564.566v1.77c0 .354-.211.566-.563.566z" fill="#A8AEBC" fill-rule="nonzero"/>
</svg>
