<svg width="22" height="22" viewBox="0 0 22 22" xmlns="http://www.w3.org/2000/svg">
    <defs>
        <linearGradient x1="100%" y1="100%" x2="0%" y2="0%" id="cr907in5la">
            <stop stop-color="#95FFF6" offset="0%"/>
            <stop stop-color="#5C88FF" offset="100%"/>
        </linearGradient>
    </defs>
    <path d="M82.48 0h-6.876C74.72 0 74 .72 74 1.604V5.73c0 .885.72 1.604 1.604 1.604h6.875c.885 0 1.604-.72 1.604-1.604V1.604C84.083.72 83.363 0 82.48 0zm0 9.167h-6.876c-.884 0-1.604.72-1.604 1.604v9.625c0 .884.72 1.604 1.604 1.604h6.875c.885 0 1.604-.72 1.604-1.604V10.77c0-.885-.72-1.604-1.604-1.604zm11.916 5.5H87.52c-.885 0-1.604.72-1.604 1.604v4.125c0 .884.72 1.604 1.604 1.604h6.875C95.28 22 96 21.28 96 20.396V16.27c0-.885-.72-1.604-1.604-1.604zm0-14.667H87.52c-.885 0-1.604.72-1.604 1.604v9.625c0 .885.72 1.604 1.604 1.604h6.875c.884 0 1.604-.72 1.604-1.604V1.604C96 .72 95.28 0 94.396 0z" transform="translate(-74)" fill="url(#cr907in5la)" fill-rule="evenodd"/>
</svg>
