<svg width="37" height="33" viewBox="0 0 37 33" xmlns="http://www.w3.org/2000/svg">
    <g fill="#576078" fill-rule="nonzero">
        <path d="M1.082 25.653h28.33c.254 0 .5-.087.694-.247.272-.225 6.48-5.49 6.858-16.855H6.539C6.162 18.868.445 23.717.386 23.765c-.348.29-.477.764-.32 1.186.156.42.561.702 1.016.702zM35.916 2.138h-5.42v-1.07C30.496.47 30.019 0 29.412 0c-.607 0-1.084.47-1.084 1.069v1.069h-5.493v-1.07C22.835.47 22.358 0 21.751 0c-.607 0-1.084.47-1.084 1.069v1.069h-5.42v-1.07C15.247.47 14.77 0 14.163 0c-.607 0-1.084.47-1.084 1.069v1.069h-5.42c-.607 0-1.084.47-1.084 1.069v3.206H37V3.207c0-.599-.477-1.07-1.084-1.07z"/>
        <path d="M31.498 27.045a3.29 3.29 0 0 1-2.086.746H6.575v3.207c0 .59.485 1.069 1.084 1.069h28.257c.6 0 1.084-.478 1.084-1.07V19.017c-2.09 5.056-5.006 7.62-5.502 8.029z"/>
    </g>
</svg>
