<svg width="38" height="38" viewBox="0 0 38 38" xmlns="http://www.w3.org/2000/svg">
    <path d="M23.144 9.005a1.187 1.187 0 1 1 1.68-1.68l5.604 5.605a1.187 1.187 0 1 1-1.68 1.679l-5.604-5.604zM38 36.562c0 .656-.532 1.188-1.187 1.188l-23.406.003c-1.262 0-2.528-.402-3.595-1.067a7.319 7.319 0 0 1-1.295-1.035l-6.414-6.414c-2.568-2.568-2.82-6.493-.561-8.752L20.485 1.542c2.259-2.258 6.184-2.007 8.752.56l6.414 6.415c2.567 2.567 2.819 6.493.56 8.751L18.105 35.375h18.708c.655 0 1.187.531 1.187 1.187zM7.883 17.503 20.25 29.87 34.532 15.59c1.332-1.332 1.08-3.752-.56-5.393l-6.415-6.414c-.932-.932-2.115-1.416-3.208-1.416-.83 0-1.609.28-2.184.855L7.883 17.503zm2.313 16.468c1.641 1.642 4.06 1.893 5.393.561l2.982-2.982L6.204 19.182 3.22 22.165c-1.332 1.332-1.08 3.75.561 5.392l6.414 6.414z" fill="#576078" fill-rule="nonzero"/>
</svg>
