<svg width="50" height="50" viewBox="0 0 50 50" xmlns="http://www.w3.org/2000/svg">
    <g fill="#616778" fill-rule="nonzero">
        <path d="M1.915 49.575c.49 0 .98-.188 1.354-.561l15.453-15.455v8.917c0 1.06.856 1.915 1.915 1.915a1.913 1.913 0 0 0 1.915-1.915V28.938a1.913 1.913 0 0 0-1.915-1.915H7.1a1.913 1.913 0 0 0-1.915 1.915c0 1.059.856 1.915 1.915 1.915h8.914L.562 46.306a1.913 1.913 0 0 0 1.353 3.269zM29.148 22.767h13.539a1.913 1.913 0 0 0 1.914-1.915 1.913 1.913 0 0 0-1.914-1.915H33.77L49.438 3.269a1.913 1.913 0 0 0 0-2.707 1.913 1.913 0 0 0-2.707 0L31.063 16.229V7.313A1.913 1.913 0 0 0 29.148 5.4a1.913 1.913 0 0 0-1.915 1.914v13.539c0 1.057.856 1.915 1.915 1.915z"/>
    </g>
</svg>
