<svg width="27" height="29" viewBox="0 0 27 29" xmlns="http://www.w3.org/2000/svg">
    <path d="m26.275 12.523-.002-.002L15.258 1A2.415 2.415 0 0 0 13.5.237c-.664 0-1.288.27-1.758.762L.733 12.515l-.011.012c-.964 1.014-.963 2.66.005 3.671a2.422 2.422 0 0 0 1.726.762h.439v8.478c0 1.678 1.305 3.043 2.91 3.043h4.309c.437 0 .79-.37.79-.827v-6.647c0-.766.596-1.389 1.328-1.389h2.542c.732 0 1.327.623 1.327 1.389v6.647c0 .457.355.827.792.827h4.309c1.604 0 2.91-1.365 2.91-3.043V16.96h.407c.663 0 1.288-.27 1.757-.762.969-1.013.97-2.661.002-3.675z" fill="#4E5567" fill-rule="nonzero"/>
</svg>
