<svg width="43" height="40" viewBox="0 0 43 40" xmlns="http://www.w3.org/2000/svg">
    <g fill="#576078" fill-rule="nonzero">
        <path d="M31.269 40c-.301 0-.61-.038-.914-.12L2.651 32.35c-1.9-.53-3.032-2.526-2.534-4.454l3.496-13.221a.9.9 0 0 1 1.096-.644.91.91 0 0 1 .635 1.113L1.85 28.362c-.25.963.32 1.967 1.272 2.234l27.694 7.526a1.781 1.781 0 0 0 2.18-1.28l1.4-5.262a.893.893 0 0 1 1.098-.642c.478.131.76.631.632 1.115l-1.398 5.254A3.587 3.587 0 0 1 31.268 40z"/>
        <path d="M39.415 29.09H10.75c-1.976 0-3.583-1.63-3.583-3.635V3.636C7.166 1.631 8.773 0 10.749 0h28.666C41.392 0 43 1.63 43 3.636v21.819c0 2.005-1.607 3.636-3.584 3.636zM10.75 1.819c-.987 0-1.792.817-1.792 1.818v21.819c0 1.001.805 1.818 1.792 1.818h28.666c.988 0 1.792-.817 1.792-1.818V3.636c0-1.001-.804-1.818-1.792-1.818H10.75z"/>
        <path d="M16.124 12.727c-1.976 0-3.583-1.63-3.583-3.636 0-2.006 1.607-3.636 3.583-3.636 1.976 0 3.583 1.63 3.583 3.636 0 2.005-1.607 3.636-3.583 3.636zm0-5.454c-.987 0-1.792.816-1.792 1.818 0 1.002.805 1.818 1.792 1.818s1.792-.816 1.792-1.818c0-1.002-.805-1.818-1.792-1.818zM8.187 27.145a.893.893 0 0 1-.634-.265.92.92 0 0 1 0-1.285l8.462-8.588c1.014-1.029 2.786-1.029 3.8 0l2.519 2.557 6.973-8.491a2.677 2.677 0 0 1 2.046-.982h.02a2.67 2.67 0 0 1 2.04.95l9.37 11.095c.323.38.28.955-.096 1.282a.884.884 0 0 1-1.263-.098l-9.37-11.095a.88.88 0 0 0-.681-.316c-.187-.016-.514.115-.688.327l-7.602 9.257a.888.888 0 0 1-.649.325.856.856 0 0 1-.673-.265l-3.213-3.26a.91.91 0 0 0-1.267 0L8.82 26.88a.886.886 0 0 1-.632.265z"/>
    </g>
</svg>
