<svg width="38" height="34" viewBox="0 0 38 34" xmlns="http://www.w3.org/2000/svg">
    <defs>
        <linearGradient x1="0%" y1="17.77%" x2="100%" y2="81.128%" id="15tmzwqvaa">
            <stop stop-color="#5C88FF" offset="0%"/>
            <stop stop-color="#4FD8CC" offset="100%"/>
        </linearGradient>
    </defs>
    <g fill="none" fill-rule="evenodd">
        <path d="M21.04.386c3.868 0 6.44.626 8.66 1.813a12.26 12.26 0 0 1 5.1 5.1c1.188 2.221 1.814 4.793 1.814 8.66v2.081c0 3.868-.626 6.44-1.813 8.66a12.26 12.26 0 0 1-5.1 5.1c-2.221 1.188-4.793 1.814-8.66 1.814H15.96c-3.868 0-6.44-.626-8.66-1.813a12.26 12.26 0 0 1-5.1-5.1C1.011 24.48.385 21.907.385 18.04V15.96c0-3.868.626-6.44 1.813-8.66a12.26 12.26 0 0 1 5.1-5.1C9.52 1.011 12.093.385 15.96.385z" stroke="url(#15tmzwqvaa)" stroke-width=".773" transform="translate(.5)"/>
        <g fill="#5C88FF" fill-rule="nonzero">
            <path d="M12.44 17.209a6.918 6.918 0 0 1 7.393.783 5.847 5.847 0 0 0 6.25.661l1.417-.708v-5.158A3.793 3.793 0 0 0 23.713 9h-8.426a3.793 3.793 0 0 0-3.787 3.787v4.89l.94-.468zm11.06-5.542a1.333 1.333 0 1 1 0 2.666 1.333 1.333 0 0 1 0-2.666z"/>
            <path d="M26.56 19.608a6.915 6.915 0 0 1-7.393-.783 5.85 5.85 0 0 0-6.25-.662l-1.417.708v2.342A3.793 3.793 0 0 0 15.287 25h8.426a3.793 3.793 0 0 0 3.787-3.787v-2.075l-.94.47z"/>
        </g>
    </g>
</svg>
