<svg width="144" height="145" viewBox="0 0 144 145" xmlns="http://www.w3.org/2000/svg">
    <g fill="#20252F" fill-rule="evenodd">
        <path d="M105 144.747c-21.504 0-39-17.498-39-39.005s17.496-39.005 39-39.005 39 17.498 39 39.005-17.496 39.005-39 39.005zm0-69.009c-16.542 0-30 13.46-30 30.004s13.458 30.004 30 30.004 30-13.46 30-30.004-13.458-30.004-30-30.004z"/>
        <path d="M105 126.745a4.502 4.502 0 0 1-4.5-4.5V89.24c0-2.484 2.016-4.5 4.5-4.5s4.5 2.016 4.5 4.5v33.004c0 2.485-2.016 4.501-4.5 4.501z"/>
        <path d="M121.5 110.243h-33a4.502 4.502 0 0 1-4.5-4.5c0-2.485 2.016-4.501 4.5-4.501h33c2.484 0 4.5 2.016 4.5 4.5 0 2.485-2.016 4.5-4.5 4.5zM55.14 126.745H16.5c-9.102 0-16.5-7.399-16.5-16.502V17.23C0 8.128 7.398.729 16.5.729h69c9.102 0 16.5 7.399 16.5 16.502v36.544c0 2.485-2.016 4.501-4.5 4.501a4.502 4.502 0 0 1-4.5-4.5V17.23c0-4.135-3.366-7.501-7.5-7.501h-69c-4.134 0-7.5 3.366-7.5 7.5v93.013c0 4.134 3.366 7.5 7.5 7.5h38.64a4.502 4.502 0 0 1 0 9.001z"/>
        <path d="M79.5 57.736h-57a4.502 4.502 0 0 1-4.5-4.5c0-2.485 2.016-4.501 4.5-4.501h57c2.484 0 4.5 2.016 4.5 4.5 0 2.485-2.016 4.501-4.5 4.501zM55.5 81.74h-33a4.502 4.502 0 0 1-4.5-4.501c0-2.485 2.016-4.501 4.5-4.501h33c2.484 0 4.5 2.016 4.5 4.5 0 2.485-2.016 4.501-4.5 4.501zM49.5 33.733h-27a4.502 4.502 0 0 1-4.5-4.5c0-2.485 2.016-4.501 4.5-4.501h27c2.484 0 4.5 2.016 4.5 4.5 0 2.485-2.016 4.5-4.5 4.5z"/>
    </g>
</svg>
