<svg width="125" height="125" viewBox="0 0 125 125" xmlns="http://www.w3.org/2000/svg">
    <path d="M37.816 0c3.437 0 5.937 1.958 5.937 5.271v8.283h37.494V5.271c0-3.313 2.5-5.271 5.936-5.271h9.218c3.437 0 6.717 1.958 6.717 5.271v8.283h9.999c.265-.007.53-.005.795.005 6.38.252 11.34 5.442 11.078 11.592v87.048c0 6.626-4.999 12.801-11.873 12.801H11.882C5.008 125 .01 118.825.01 112.199V25.15c-.01-.256-.012-.512-.005-.767.178-6.153 5.496-11.001 11.879-10.83h9.998V5.271C21.88 1.958 25.16 0 28.599 0zm80.925 48.193H6.26v64.006c0 3.313 2.187 6.777 5.624 6.777h101.234c3.437 0 5.624-3.464 5.624-6.777V48.193zM58.125 57.68c.753-1.497 2.621-2.123 4.174-1.398a3.07 3.07 0 0 1 1.45 1.398l7.03 13.704 15.623 2.26c1.131.186 2.079.928 2.5 1.957a3.227 3.227 0 0 1-.781 3.163L76.716 89.307l2.812 15.06c.165 1.104-.316 2.204-1.25 2.862a3.041 3.041 0 0 1-1.874.602l-1.407-.3-14.06-7.08-14.06 7.08c-1.529.77-3.417.2-4.217-1.274a2.918 2.918 0 0 1-.313-1.89l2.812-15.06-11.405-10.542a3.227 3.227 0 0 1-.781-3.163c.42-1.029 1.369-1.771 2.5-1.957l15.622-2.26zm2.812 8.132-4.999 9.639c-.374.885-1.206 1.515-2.187 1.657l-11.093 1.505 7.968 7.38a3.093 3.093 0 0 1 .937 2.71L49.69 99.399l9.842-5.12 1.406-.302 1.406.301 9.842 5.12-1.874-10.692a3.094 3.094 0 0 1 .937-2.711l7.968-7.38-11.093-1.505c-.98-.142-1.812-.772-2.187-1.657l-4.999-9.639zm57.815-41.446c-.184-2.823-2.707-4.967-5.635-4.789h-9.999v3.314c0 3.313-3.28 5.722-6.717 5.722h-9.218a5.799 5.799 0 0 1-.316 0c-3.191-.084-5.708-2.646-5.62-5.722v-3.314H43.753v3.314c.003.102.003.203 0 .305-.088 3.076-2.746 5.502-5.937 5.418h-9.217c-3.437 0-6.718-2.41-6.718-5.723v-3.313h-9.999a5.511 5.511 0 0 0-.813.01c-2.921.255-5.075 2.745-4.81 5.562v17.018H118.74V25.15c.025-.26.028-.523.011-.784zM96.87 6.024h-9.686V22.59h9.686V6.024zm-59.365 0h-8.905V22.59h8.905V6.024z" fill="#20252F" fill-rule="nonzero"/>
</svg>
