<svg width="18" height="23" viewBox="0 0 18 23" xmlns="http://www.w3.org/2000/svg">
    <path d="M8.864 10.778c1.428 0 2.664-.522 3.674-1.553 1.01-1.03 1.522-2.29 1.522-3.746s-.512-2.716-1.522-3.747C11.528.702 10.291.18 8.864.18 7.436.18 6.2.702 5.19 1.733c-1.01 1.03-1.523 2.29-1.523 3.746S4.18 8.195 5.19 9.225c1.01 1.03 2.246 1.553 3.674 1.553zm9.092 6.32c-.029-.43-.088-.897-.174-1.391-.088-.497-.2-.968-.336-1.398a6.973 6.973 0 0 0-.563-1.303 4.909 4.909 0 0 0-.85-1.13 3.737 3.737 0 0 0-1.22-.781 4.146 4.146 0 0 0-1.559-.288c-.22 0-.433.092-.844.365-.253.169-.55.364-.88.579-.283.184-.665.356-1.138.511a4.44 4.44 0 0 1-1.392.23c-.463 0-.931-.077-1.393-.23-.472-.155-.855-.327-1.138-.511-.327-.213-.623-.408-.88-.579-.411-.273-.624-.365-.844-.365a4.14 4.14 0 0 0-1.558.288 3.734 3.734 0 0 0-1.221.782 4.91 4.91 0 0 0-.85 1.129c-.234.42-.423.859-.563 1.304-.135.43-.247.9-.335 1.397-.087.493-.146.96-.175 1.39-.029.422-.043.858-.043 1.3 0 1.148.358 2.078 1.064 2.763.697.677 1.62 1.02 2.742 1.02h10.388c1.122 0 2.044-.343 2.742-1.02.706-.685 1.064-1.615 1.064-2.763 0-.444-.015-.881-.044-1.3z" fill="#4E5567" fill-rule="nonzero"/>
</svg>
