<svg width="51" height="47" viewBox="0 0 51 47" xmlns="http://www.w3.org/2000/svg">
    <defs>
        <linearGradient x1="0%" y1="17.844%" x2="100%" y2="81.056%" id="6vfn726gya">
            <stop stop-color="#5C88FF" offset="0%"/>
            <stop stop-color="#4FD8CC" offset="100%"/>
        </linearGradient>
    </defs>
    <g fill="none" fill-rule="evenodd">
        <path d="M28.535.524c5.232 0 8.72.847 11.73 2.457a16.623 16.623 0 0 1 6.916 6.916c1.61 3.01 2.457 6.498 2.457 11.73v2.788c0 5.231-.847 8.72-2.457 11.73a16.623 16.623 0 0 1-6.916 6.915c-3.01 1.61-6.498 2.458-11.73 2.458h-6.908c-5.232 0-8.72-.848-11.73-2.458a16.623 16.623 0 0 1-6.916-6.915c-1.61-3.01-2.457-6.499-2.457-11.73v-2.788c0-5.232.847-8.72 2.457-11.73A16.623 16.623 0 0 1 9.897 2.98c3.01-1.61 6.498-2.457 11.73-2.457z" stroke="url(#6vfn726gya)" stroke-width="1.048" transform="translate(.044)"/>
        <g fill="#5C88FF" fill-rule="nonzero">
            <path d="M19.08 29.047a10.597 10.597 0 0 1-3.076-6.458 6.79 6.79 0 0 0-1.436 4.202 6.887 6.887 0 0 0 .645 2.897l-.868 2.563c-.15.44-.04.918.284 1.248a1.175 1.175 0 0 0 1.23.288l2.526-.88a6.624 6.624 0 0 0 2.854.654 6.571 6.571 0 0 0 4.21-1.512c-2.394-.22-4.628-1.266-6.37-3.002z"/>
            <path d="m35.893 29.29-1.26-3.72a9.44 9.44 0 0 0 .93-4.07 9.313 9.313 0 0 0-2.631-6.526c-1.701-1.757-3.968-2.746-6.383-2.785a9.024 9.024 0 0 0-6.627 2.722 9.298 9.298 0 0 0-2.683 6.725 9.3 9.3 0 0 0 2.745 6.476c1.729 1.723 4.007 2.67 6.417 2.67h.014a9.081 9.081 0 0 0 4.012-.943l3.666 1.278a1.397 1.397 0 0 0 1.462-.343c.386-.391.515-.96.338-1.483zm-8.607-4.578h-4.731a.65.65 0 0 1-.646-.656.65.65 0 0 1 .646-.655h4.731a.65.65 0 0 1 .646.655.65.65 0 0 1-.646.656zm2.96-2.695h-7.691a.65.65 0 0 1-.646-.655.65.65 0 0 1 .646-.655h7.692a.65.65 0 0 1 .646.655.65.65 0 0 1-.646.655zm0-2.694h-7.691a.65.65 0 0 1-.646-.655.65.65 0 0 1 .646-.655h7.692a.65.65 0 0 1 .646.655.65.65 0 0 1-.646.655z"/>
        </g>
    </g>
</svg>
