<svg width="31" height="31" viewBox="0 0 31 31" xmlns="http://www.w3.org/2000/svg">
    <path d="M1.187 30.85c-.127 0-.25-.02-.367-.058l.12.031a1.206 1.206 0 0 1-.49-.23 1.173 1.173 0 0 1-.45-.917v-.012c0-.087.01-.173.03-.257l1.832-8.477.034-.124.004-.01a1.168 1.168 0 0 1 .284-.452l18.55-18.42.01-.008c1.109-1.102 2.6-1.71 4.199-1.71 1.598 0 3.09.608 4.2 1.71a5.825 5.825 0 0 1 1.72 4.169 5.83 5.83 0 0 1-1.53 3.971l-.19.198-18.56 18.428-.035.032a1.182 1.182 0 0 1-.01.01l.044-.042c-.04.04-.08.075-.124.108l-.044.03a.84.84 0 0 1-.06.04l-.045.024c-.1.055-.206.094-.315.117l-8.557 1.823c-.08.017-.163.026-.248.026zM18.225 7.752 4.11 21.765l-1.376 6.369 6.416-1.366 14.114-14.013-5.039-5.003zm6.718-5.187c-.96 0-1.853.36-2.514 1.013l-2.525 2.507 5.039 5.003 2.511-2.493.009-.009a3.493 3.493 0 0 0 1.025-2.501c0-.956-.364-1.845-1.025-2.501a3.545 3.545 0 0 0-2.52-1.019z" fill="#576078" fill-rule="evenodd"/>
</svg>
