<svg width="40" height="38" viewBox="0 0 40 38" xmlns="http://www.w3.org/2000/svg">
    <g fill="none" fill-rule="evenodd">
        <path d="M24.056 1.026c4.916 0 6.972.542 8.955 1.603a10.782 10.782 0 0 1 4.486 4.485c1.06 1.983 1.603 4.04 1.603 8.956v5.905c0 4.917-.543 6.973-1.603 8.956a10.782 10.782 0 0 1-4.486 4.485c-1.983 1.06-4.039 1.603-8.955 1.603h-7.722c-4.917 0-6.973-.542-8.956-1.603a10.782 10.782 0 0 1-4.486-4.485c-1.06-1.983-1.603-4.04-1.603-8.956V16.07c0-4.917.543-6.973 1.603-8.956A10.782 10.782 0 0 1 7.378 2.63c1.983-1.06 4.039-1.603 8.956-1.603h7.722z" stroke="#576078" stroke-width="1.352" fill="#0D0D0D"/>
        <text font-family="Comfortaa-Medium, Comfortaa" font-size="25.2" font-weight="400" fill="#FFF" transform="translate(.613 .35)">
                                    <tspan x="15" y="26">-</tspan>
                                </text>
    </g>
</svg>
