<svg width="34" height="34" viewBox="0 0 34 34" xmlns="http://www.w3.org/2000/svg">
    <path d="M33.507 11.008c.315.328.493.775.493 1.24 0 .466-.178.912-.493 1.241L23.429 24.005a1.63 1.63 0 0 1-2.354-.022 1.807 1.807 0 0 1-.02-2.456l7.21-7.528H11.757c-4.638 0-8.398 3.924-8.398 8.763 0 4.84 3.76 7.733 8.398 7.733h3.563c.927 0 1.68.784 1.68 1.752S16.246 34 15.32 34h-3.563C5.264 34 0 29.538 0 22.762c0-6.775 5.264-12.268 11.757-12.268h16.508l-7.21-7.524a1.807 1.807 0 0 1 .02-2.457 1.63 1.63 0 0 1 2.354-.021l10.078 10.516z" fill="#576078" fill-rule="nonzero"/>
</svg>
