<svg width="51" height="47" viewBox="0 0 51 47" xmlns="http://www.w3.org/2000/svg">
    <defs>
        <linearGradient x1="0%" y1="17.839%" x2="100%" y2="81.061%" id="2l1fyj811a">
            <stop stop-color="#5C88FF" offset="0%"/>
            <stop stop-color="#4FD8CC" offset="100%"/>
        </linearGradient>
    </defs>
    <g fill="none" fill-rule="evenodd">
        <path d="M28.53.524c5.232 0 8.72.847 11.731 2.457a16.623 16.623 0 0 1 6.915 6.916c1.61 3.01 2.458 6.498 2.458 11.73v2.788c0 5.231-.848 8.72-2.458 11.73a16.623 16.623 0 0 1-6.915 6.915c-3.01 1.61-6.499 2.458-11.73 2.458h-6.904c-5.232 0-8.72-.848-11.73-2.458a16.623 16.623 0 0 1-6.916-6.915c-1.61-3.01-2.457-6.499-2.457-11.73v-2.788c0-5.232.847-8.72 2.457-11.73A16.623 16.623 0 0 1 9.897 2.98c3.01-1.61 6.498-2.457 11.73-2.457z" stroke="url(#2l1fyj811a)" stroke-width="1.048" transform="translate(.69)"/>
        <g fill="#5C88FF">
            <g fill-rule="nonzero">
                <path d="M33.585 12.187H19.308c-1.69 0-3.706 1.349-3.706 3.012v.685h21.69v-.685c0-1.663-2.018-3.012-3.707-3.012zM15.602 25.298c0 1.663 1.37 3.011 3.059 3.011h14.924c1.69 0 3.706-1.348 3.706-3.011v-8.03h-21.69v8.03z"/>
            </g>
            <path d="M24.342 29.712h1.619l-1.942 4.142-1.295-.637zM26.932 29.712h1.619l1.942 3.505-1.619.637z"/>
        </g>
    </g>
</svg>
