<svg width="22" height="23" viewBox="0 0 22 23" xmlns="http://www.w3.org/2000/svg">
    <path d="m21.479 19.104-5.058-5.127A9.055 9.055 0 0 0 17.78 9.19c0-4.977-3.98-9.01-8.89-9.01S0 4.213 0 9.19c0 4.978 3.98 9.011 8.89 9.011a8.766 8.766 0 0 0 5.077-1.615l4.998 5.066a1.761 1.761 0 0 0 2.515 0 1.82 1.82 0 0 0-.001-2.549zm-12.59-3.821c-3.318 0-6.008-2.727-6.008-6.091C2.88 5.828 5.57 3.1 8.889 3.1c3.32 0 6.01 2.727 6.01 6.09 0 3.365-2.69 6.092-6.01 6.092z" fill="#4E5567" fill-rule="nonzero"/>
</svg>
