<svg width="79" height="50" viewBox="0 0 79 50" xmlns="http://www.w3.org/2000/svg">
    <g fill="#576078" fill-rule="evenodd">
        <path d="M70.367 7.359V5.022h-9.911v2.337h3.803v39.326h-3.803v2.337h9.91v-2.337h-3.802V7.359z"/>
        <g stroke="#000" stroke-width=".88">
            <path d="M16.307 10.45c1.07 0 1.931.229 2.617.661.732.462 1.259 1.154 1.639 2.016L32.165 39.69c.209.466.342.89.342 1.314 0 .871-.334 1.658-.886 2.225a2.971 2.971 0 0 1-2.145.902c-.719 0-1.324-.2-1.823-.563-.556-.404-.979-1.003-1.29-1.723l-2.347-5.57H8.788l-2.441 5.81c-.276.644-.687 1.161-1.202 1.515a3.09 3.09 0 0 1-1.77.531 2.877 2.877 0 0 1-2.079-.872A3.077 3.077 0 0 1 .44 41.1c0-.472.178-.94.39-1.415l11.6-26.557c.376-.852.906-1.537 1.58-2 .642-.441 1.413-.679 2.297-.679zm.095 7.424L11.132 30.6h10.54l-5.27-12.725zM48.492 18.596c3.793 0 6.55.996 8.292 2.761 1.83 1.856 2.63 4.601 2.63 7.934v11.761c0 .862-.34 1.63-.892 2.183a3.074 3.074 0 0 1-2.186.896c-.881 0-1.621-.296-2.151-.76-.555-.486-.88-1.154-.88-1.837V40.4l-.764.839c-1.685 1.846-4.01 3.086-7.377 3.086-2.38 0-4.545-.71-6.07-2.089-1.39-1.256-2.238-3.068-2.238-5.376 0-2.598.907-4.524 2.499-5.816 1.755-1.425 4.313-2.083 7.33-2.083 2.508 0 4.32.424 6.084 1.036.19.066.377.133.564.203.014-.2.02-.406.02-.619 0-1.879-.522-3.262-1.504-4.188-.983-.927-2.447-1.41-4.403-1.41-2.05 0-3.71.299-5.133.747-.37.125-.617.17-.906.17a2.556 2.556 0 0 1-1.816-.74 2.533 2.533 0 0 1-.738-1.809c0-.549.168-1.058.455-1.478.295-.43.716-.767 1.21-.955 2.238-.85 4.663-1.32 7.974-1.32zm-.096 13.87c-1.684 0-3.03.364-3.954 1.042-.946.694-1.478 1.716-1.478 3.062 0 1.12.456 2.009 1.232 2.625.763.606 1.854.948 3.154.948 1.796 0 3.297-.509 4.355-1.356 1.107-.887 1.743-2.144 1.743-3.615v-1.576c-1.315-.67-3.098-1.13-5.052-1.13z"/>
        </g>
        <path d="M65.587 2.822c1.187 0 2.262.48 3.04 1.255a4.278 4.278 0 0 1 1.263 3.04v1.99h2.007c1.187 0 2.262.48 3.04 1.255a4.277 4.277 0 0 1 1.263 3.04 4.277 4.277 0 0 1-1.263 3.04 4.294 4.294 0 0 1-3.04 1.256H69.89v1.99a4.277 4.277 0 0 1-1.264 3.04 4.294 4.294 0 0 1-3.04 1.256 4.294 4.294 0 0 1-3.04-1.255 4.277 4.277 0 0 1-1.263-3.04v-1.991h-2.007a4.294 4.294 0 0 1-3.04-1.255 4.277 4.277 0 0 1-1.263-3.04c0-1.187.482-2.262 1.264-3.04a4.294 4.294 0 0 1 3.04-1.256h2.006v-1.99c0-1.187.483-2.262 1.264-3.04a4.294 4.294 0 0 1 3.04-1.255z" stroke="#000" stroke-width="4.4"/>
    </g>
</svg>
