<svg width="51" height="47" viewBox="0 0 51 47" xmlns="http://www.w3.org/2000/svg">
    <defs>
        <linearGradient x1="0%" y1="17.844%" x2="100%" y2="81.056%" id="2x2dk9026a">
            <stop stop-color="#5C88FF" offset="0%"/>
            <stop stop-color="#4FD8CC" offset="100%"/>
        </linearGradient>
    </defs>
    <g fill="none" fill-rule="evenodd">
        <path d="M28.535.524c5.232 0 8.72.847 11.73 2.457a16.623 16.623 0 0 1 6.916 6.916c1.61 3.01 2.457 6.498 2.457 11.73v2.788c0 5.231-.847 8.72-2.457 11.73a16.623 16.623 0 0 1-6.916 6.915c-3.01 1.61-6.498 2.458-11.73 2.458h-6.908c-5.232 0-8.72-.848-11.73-2.458a16.623 16.623 0 0 1-6.916-6.915c-1.61-3.01-2.457-6.499-2.457-11.73v-2.788c0-5.232.847-8.72 2.457-11.73A16.623 16.623 0 0 1 9.897 2.98c3.01-1.61 6.498-2.457 11.73-2.457z" stroke="url(#2x2dk9026a)" stroke-width="1.048" transform="translate(.366)"/>
        <path d="M34.032 12.187H18.219a2.942 2.942 0 0 0-2.94 2.936v15.795a2.942 2.942 0 0 0 2.94 2.936h15.813a2.942 2.942 0 0 0 2.939-2.936V15.123a2.942 2.942 0 0 0-2.94-2.936zM24.348 25.89l-2.324 2.322a.775.775 0 0 1-1.096 0l-1.549-1.548a.773.773 0 1 1 1.095-1.094l1.003 1 1.776-1.774a.775.775 0 0 1 1.096 1.094h-.001zm0-6.964-2.324 2.321a.775.775 0 0 1-1.096 0L19.38 19.7a.773.773 0 1 1 1.095-1.094l1.003 1 1.776-1.774a.775.775 0 0 1 1.096 1.094h-.001zm7.975 8.739H26.9a.774.774 0 1 1 0-1.548h5.423a.774.774 0 1 1 0 1.548zm0-6.965H26.9a.774.774 0 1 1 0-1.547h5.423a.774.774 0 1 1 0 1.547z" fill="#5C88FF" fill-rule="nonzero"/>
    </g>
</svg>
