<svg width="182" height="181" viewBox="0 0 182 181" xmlns="http://www.w3.org/2000/svg">
    <g fill="#20232C" fill-rule="nonzero">
        <path d="M109.384 165.402c-1.5.375-3.03.707-4.55.988-3.97.74-6.594 4.564-5.86 8.545a7.311 7.311 0 0 0 2.98 4.655 7.282 7.282 0 0 0 5.546 1.214 91.085 91.085 0 0 0 5.42-1.179c3.92-.977 6.31-4.956 5.331-8.882a7.313 7.313 0 0 0-8.867-5.341zM163.49 67.16a7.306 7.306 0 0 0 2.727 3.683 7.3 7.3 0 0 0 6.518.97 7.335 7.335 0 0 0 4.646-9.262 91.159 91.159 0 0 0-1.903-5.218c-1.5-3.758-5.757-5.588-9.51-4.085-3.75 1.503-5.578 5.768-4.076 9.527a76.44 76.44 0 0 1 1.598 4.385zM133.159 154.937a76.603 76.603 0 0 1-3.965 2.454c-3.5 2.023-4.7 6.506-2.681 10.012a7.31 7.31 0 0 0 2.119 2.329 7.313 7.313 0 0 0 7.874.356 91.148 91.148 0 0 0 4.719-2.92c3.37-2.23 4.298-6.778 2.07-10.156a7.305 7.305 0 0 0-10.136-2.075zM181.93 87.63c-.159-4.045-3.56-7.194-7.6-7.036-4.034.16-7.18 3.569-7.021 7.612.06 1.547.076 3.116.04 4.66a7.324 7.324 0 0 0 7.155 7.49c4.038.09 7.385-3.118 7.474-7.166.04-1.845.025-3.715-.048-5.56zM162.296 135.656a7.305 7.305 0 0 0-10.245 1.465 76.478 76.478 0 0 1-2.908 3.644 7.341 7.341 0 0 0 1.363 10.746 7.308 7.308 0 0 0 9.778-1.243 91.04 91.04 0 0 0 3.472-4.351 7.34 7.34 0 0 0-1.46-10.261zM173.05 109.16c-3.855-1.21-7.96.94-9.169 4.802a77.718 77.718 0 0 1-1.528 4.41 7.34 7.34 0 0 0 2.617 8.599c.49.344 1.029.636 1.614.858 3.775 1.443 8.003-.454 9.442-4.237a94.312 94.312 0 0 0 1.817-5.245c1.207-3.863-.938-7.975-4.792-9.186zM77.463 166.455a75.45 75.45 0 0 1-18.767-5.974c-.07-.037-.133-.079-.207-.113a79.857 79.857 0 0 1-4.159-2.109 78.025 78.025 0 0 1-7.3-4.57C12.613 129.403 4.338 81.593 28.584 47.115a76.097 76.097 0 0 1 18.765-18.702c.088-.06.176-.122.262-.183 25.065-17.301 59.1-18.467 85.715-.689l-5.717 8.274c-1.589 2.303-.611 3.981 2.17 3.73l24.831-2.227c2.786-.25 4.451-2.664 3.702-5.36l-6.667-24.065c-.747-2.698-2.658-3.021-4.249-.719l-5.73 8.294C122.136 2.332 98.709-2.676 75.457 1.363a91.9 91.9 0 0 0-6.928 1.481c-.018.003-.032.005-.046.009-.088.021-.177.05-.263.074C48.17 8.085 30.675 19.8 18.192 36.514c-.105.125-.214.248-.313.384a89.845 89.845 0 0 0-3.162 4.57c-.078.116-.138.234-.206.351C4.211 57.81-.759 76.297.094 95.118c.002.062-.002.124 0 .188.082 1.838.228 3.702.425 5.537.011.119.037.23.057.349a90.65 90.65 0 0 0 .782 5.544c3.264 18.866 12.148 35.843 25.46 49.053.032.03.064.064.095.097.01.012.023.018.034.03a92.227 92.227 0 0 0 11.656 9.758c10.962 7.738 23.169 12.853 36.278 15.21 3.978.715 7.777-1.937 8.49-5.92.714-3.985-1.932-7.795-5.908-8.509z"/>
        <path d="M86.51 31.946a5.927 5.927 0 0 0-5.922 5.93v59.081l53.939 27.933a5.918 5.918 0 0 0 7.976-2.546 5.932 5.932 0 0 0-2.54-7.989l-47.537-24.62V37.877c0-3.273-2.648-5.93-5.916-5.93z"/>
    </g>
</svg>
