<svg width="23" height="22" viewBox="0 0 23 22" xmlns="http://www.w3.org/2000/svg">
    <path d="M10.035.676h2.324c2.561 0 3.941.338 5.186 1.004a6.704 6.704 0 0 1 2.79 2.789c.666 1.245 1.003 2.625 1.003 5.186v2.336c0 2.561-.337 3.94-1.004 5.186a6.704 6.704 0 0 1-2.789 2.79c-1.245.665-2.625 1.003-5.186 1.003h-2.324c-2.561 0-3.94-.338-5.186-1.004a6.704 6.704 0 0 1-2.79-2.789c-.665-1.245-1.003-2.625-1.003-5.186V9.655c0-2.561.338-3.94 1.004-5.186a6.704 6.704 0 0 1 2.789-2.79C6.094 1.015 7.474.677 10.035.677z" fill="#0D0D0D" stroke="#576078" stroke-width="1.352" fill-rule="evenodd"/>
</svg>
