<svg width="34" height="34" viewBox="0 0 34 34" xmlns="http://www.w3.org/2000/svg">
    <path d="M.493 11.008A1.792 1.792 0 0 0 0 12.248c0 .466.178.912.493 1.241l10.078 10.516a1.63 1.63 0 0 0 2.354-.022c.648-.676.657-1.769.02-2.456l-7.21-7.528h16.508c4.638 0 8.398 3.924 8.398 8.763 0 4.84-3.76 7.733-8.398 7.733H18.68c-.927 0-1.68.784-1.68 1.752S17.754 34 18.68 34h3.563C28.736 34 34 29.538 34 22.762c0-6.775-5.264-12.268-11.757-12.268H5.735l7.21-7.524a1.807 1.807 0 0 0-.02-2.457 1.63 1.63 0 0 0-2.354-.021L.493 11.008z" fill="#576078" fill-rule="nonzero"/>
</svg>
