<svg width="68" height="48" viewBox="0 0 68 48" xmlns="http://www.w3.org/2000/svg">
    <g fill="#576078" stroke="#000" fill-rule="evenodd">
        <path d="M33.538 7.672a5.69 5.69 0 0 1 5.669 5.69v6.189l11.07-7.457a5.272 5.272 0 0 1 5.492-.289 6.162 6.162 0 0 1 2.346 2.319c.548.955.842 2.058.82 3.206v19.79a6.193 6.193 0 0 1-.82 3.2 6.16 6.16 0 0 1-2.345 2.317 5.23 5.23 0 0 1-5.493-.29l-11.07-7.454v6.188a5.69 5.69 0 0 1-5.669 5.69H5.918a5.69 5.69 0 0 1-5.669-5.69l.001-27.719a5.69 5.69 0 0 1 5.669-5.69h27.619zm-27.62 3.46a2.23 2.23 0 0 0-2.223 2.23v27.72a2.23 2.23 0 0 0 2.223 2.23h27.62a2.23 2.23 0 0 0 2.223-2.23v-27.72a2.23 2.23 0 0 0-2.223-2.23zm47.409 3.5-.171.001c-.342.02-.677.134-.967.34l-12.982 8.743v7.011l12.99 8.748a1.815 1.815 0 0 0 1.96.107 2.73 2.73 0 0 0 1.332-2.474V17.335a2.737 2.737 0 0 0-1.328-2.47 1.848 1.848 0 0 0-1.005-.232z" stroke-width=".5"/>
        <path d="M56.613 1.922c.883 0 1.682.357 2.26.935.579.579.937 1.378.937 2.26l-.001 3.09h3.094c.883 0 1.682.358 2.26.936.58.578.937 1.377.937 2.26 0 .882-.358 1.681-.937 2.26a3.188 3.188 0 0 1-2.26.935H59.81v3.09c0 .883-.357 1.682-.936 2.26a3.188 3.188 0 0 1-2.26.936 3.188 3.188 0 0 1-2.26-.936 3.184 3.184 0 0 1-.937-2.26v-3.09h-3.093a3.188 3.188 0 0 1-2.26-.936 3.184 3.184 0 0 1-.937-2.26c0-.882.358-1.68.936-2.259a3.187 3.187 0 0 1 2.26-.936h3.094v-3.09c0-.882.358-1.681.937-2.26a3.188 3.188 0 0 1 2.26-.935z" stroke-width="2.2"/>
    </g>
</svg>
